<?xml version="1.0" encoding="UTF-8"?><svg id="Vrstva_2" xmlns="http://www.w3.org/2000/svg" viewBox="0 0 226.97 76.97"><defs><style>.cls-1{fill:#00385c;}.cls-2{fill:#676c6e;}.cls-3{fill:#fff;}.cls-4{fill:#e84e0f;}.cls-5{fill:#42a2ce;}</style></defs><g id="Vrstva_1-2"><g><g><rect class="cls-4" x="156.3" y="4.4" width="36.47" height="36.47"/><rect class="cls-3" x="172.27" y="20.37" width="13.38" height="4.52"/><polygon class="cls-3" points="163.23 11.33 163.23 33.94 185.84 33.94 185.84 29.42 167.75 29.42 167.75 15.85 185.84 15.85 185.84 11.33 163.23 11.33"/></g><g><path class="cls-2" d="M141.37,70.26c0-1.54,1.09-2.31,2.23-2.31s1.92,.62,2,1.48h-.7c-.08-.5-.61-.89-1.31-.89-.89,0-1.54,.61-1.54,1.72s.65,1.72,1.54,1.72c.72,0,1.31-.46,1.36-1.14v-.1s-1.32,0-1.32,0v-.57h1.99s0,.14,0,.38c0,1.45-1.09,2.02-2.02,2.02-1.2,0-2.24-.84-2.24-2.31Z"/><path class="cls-2" d="M146.57,68h2.9v.59h-2.23v1.3h1.8v.59h-1.8v1.44h2.3v.59h-2.97v-4.52Z"/><path class="cls-2" d="M150.45,68h.75l2.18,3.48v-3.48h.67v4.52h-.74l-2.18-3.48v3.48h-.67v-4.52Z"/><path class="cls-2" d="M155.16,68h2.9v.59h-2.23v1.3h1.8v.59h-1.8v1.44h2.3v.59h-2.97v-4.52Z"/><path class="cls-2" d="M159.05,68h1.77c.91,0,1.46,.55,1.46,1.36,0,.48-.26,.82-.67,1.02,.34,.19,.54,.55,.58,.99l.09,1.16h-.66l-.09-1.1c-.03-.4-.29-.68-.68-.68h-1.12v1.78h-.67v-4.52Zm1.75,2.14c.58,0,.81-.38,.81-.79s-.23-.78-.81-.78h-1.08v1.56h1.08Z"/><path class="cls-2" d="M164.77,68h.62l1.78,4.52h-.7l-.43-1.15h-1.92l-.43,1.15h-.69l1.78-4.52Zm-.43,2.78h1.47l-.74-1.94-.74,1.94Zm.99-4.1h.7l-.67,.96h-.56l.53-.96Z"/><path class="cls-2" d="M167.84,68h.67v3.93h2.2v.59h-2.88v-4.52Z"/><path class="cls-2" d="M171.45,68h.75l2.18,3.48v-3.48h.67v4.52h-.74l-2.18-3.48v3.48h-.67v-4.52Z"/><path class="cls-2" d="M176.16,68h.67v4.52h-.67v-4.52Zm.59-1.31h.7l-.67,.96h-.56l.53-.96Z"/><path class="cls-2" d="M179.63,68h1.75c.91,0,1.46,.56,1.46,1.36s-.55,1.36-1.46,1.36h-1.08v1.8h-.67v-4.52Zm1.73,2.14c.58,0,.81-.37,.81-.78s-.23-.78-.81-.78h-1.06v1.56h1.06Z"/><path class="cls-2" d="M184.54,68h.62l1.78,4.52h-.7l-.43-1.15h-1.92l-.43,1.15h-.69l1.78-4.52Zm-.43,2.78h1.47l-.74-1.94-.74,1.94Z"/><path class="cls-2" d="M187.6,68h1.77c.91,0,1.46,.55,1.46,1.36,0,.48-.26,.82-.67,1.02,.34,.19,.54,.55,.58,.99l.09,1.16h-.66l-.09-1.1c-.03-.4-.29-.68-.68-.68h-1.12v1.78h-.67v-4.52Zm1.75,2.14c.58,0,.81-.38,.81-.79s-.23-.78-.81-.78h-1.08v1.56h1.08Z"/><path class="cls-2" d="M192.69,68.59h-1.41v-.59h3.5v.59h-1.41v3.93h-.67v-3.93Z"/><path class="cls-2" d="M195.45,68h.75l2.18,3.48v-3.48h.67v4.52h-.74l-2.18-3.48v3.48h-.67v-4.52Z"/><path class="cls-2" d="M200.16,68h2.9v.59h-2.23v1.3h1.8v.59h-1.8v1.44h2.3v.59h-2.97v-4.52Z"/><path class="cls-2" d="M204.04,68h1.77c.91,0,1.46,.55,1.46,1.36,0,.48-.26,.82-.67,1.02,.34,.19,.54,.55,.58,.99l.09,1.16h-.66l-.09-1.1c-.03-.4-.29-.68-.68-.68h-1.12v1.78h-.67v-4.52Zm1.75,2.14c.58,0,.81-.38,.81-.79s-.23-.78-.81-.78h-1.08v1.56h1.08Z"/></g><g><path class="cls-4" d="M122.09,59.63h2.33c.1,1.15,.86,1.87,2.05,1.87,1.08,0,1.81-.45,1.81-1.31,0-2.21-5.86-.52-5.86-4.96,0-1.87,1.62-3.2,3.91-3.2,2.44,0,4.09,1.41,4.15,3.55h-2.31c-.08-.89-.76-1.47-1.84-1.47-.95,0-1.55,.45-1.55,1.11,0,2.36,5.94,.45,5.94,4.93,0,2.12-1.71,3.44-4.25,3.44s-4.28-1.57-4.38-3.97Z"/><path class="cls-4" d="M132.49,63.48v-11.31h2.44v4.72l4.26-4.72h3.02l-4.07,4.47,4.47,6.83h-3.05l-3.08-5.02-1.55,1.7v3.33h-2.44Z"/><path class="cls-4" d="M143.67,59.31v-7.14h2.28v7.14c0,1.49,.92,2.18,2.23,2.18s2.24-.69,2.24-2.18v-7.14h2.26v7.14c0,2.86-1.83,4.3-4.51,4.3s-4.51-1.44-4.51-4.3Z"/><path class="cls-4" d="M154.88,52.17h4.65c2.41,0,3.81,1.49,3.81,3.57s-1.4,3.57-3.81,3.57h-2.21v4.17h-2.44v-11.31Zm4.51,5.12c1.13,0,1.62-.73,1.62-1.55s-.48-1.55-1.62-1.55h-2.07v3.1h2.07Z"/><path class="cls-4" d="M164.99,52.17h2.44v11.31h-2.44v-11.31Z"/><path class="cls-4" d="M169.85,52.17h2.58l4.54,7.48v-7.48h2.42v11.31h-2.58l-4.54-7.48v7.48h-2.42v-11.31Z"/><path class="cls-4" d="M185.14,52.17h2.31l4.3,11.31h-2.52l-.89-2.47h-4.09l-.89,2.47h-2.52l4.3-11.31Zm-.16,6.8h2.63l-1.31-3.67-1.32,3.67Z"/><path class="cls-4" d="M196.43,57.82c0-3.81,2.65-5.78,5.67-5.78,2.84,0,4.93,1.62,5.23,4.05h-2.54c-.16-1.18-1.28-1.97-2.7-1.97-1.83,0-3.23,1.28-3.23,3.7s1.4,3.68,3.23,3.68c1.45,0,2.57-.79,2.76-1.95h2.42c-.21,2.42-2.29,4.05-5.18,4.05-3.07,0-5.67-1.97-5.67-5.78Zm4.75-8.82l.84,.97,.84-.97h1.91l-1.73,2.26h-2l-1.73-2.26h1.87Z"/><path class="cls-4" d="M209.11,52.17h7.69v2.08h-5.26v2.39h4.2v2.1h-4.2v2.63h5.44v2.1h-7.87v-11.31Z"/><path class="cls-4" d="M218.23,61.41l6.01-7.17h-5.7v-2.07h8.41v2.07l-5.99,7.17h6.01v2.07h-8.74v-2.07Z"/></g></g><g><path class="cls-1" d="M11.07,53.81c-2.71,0-5.96-.51-8.57-1.11v10.85c10.34-3.91,22.18-6.16,34.84-6.65,.38-.94,.67-1.96,.86-3.07,.48,1.06,1.04,2.05,1.66,3,.93-.02,1.86-.03,2.8-.03,12.34,0,24.01,1.64,34.42,4.81,5.45-4.39,8.29-11.37,8.29-19.97,0-15.15-9.51-25.09-24.74-25.09-16.29,0-24.72,10.64-24.88,24.69-2.52-3.81-6.68-6.18-11.92-6.41-1.95-.09-4.04,.07-5.25,.21v-5.93h17.71v-11.26H3.1v26.79c2.36-.58,4.78-.93,7.2-.93,3.56,0,8.19,.8,8.19,5.21,0,4.17-4.04,4.9-7.41,4.9ZM60.62,28.99c5.33,0,5.33,5.74,5.33,12.65,0,6.54,0,12.65-5.33,12.65s-5.46-6.11-5.46-12.65c0-6.91,0-12.65,5.46-12.65Z"/><path class="cls-1" d="M8.45,9.3c0,2.37-1.29,4.23-4.78,4.29-1.86,.04-3.67-.35-3.67-.35v-3.61s.82,.19,1.64,.16c1.12-.04,1.85-.61,1.85-1.79V.03h4.96V9.3Z"/><rect class="cls-1" x="10.29" y=".06" width="4.66" height="2.56"/><rect class="cls-1" x="10.3" y="3.73" width="4.66" height="9.64"/><polygon class="cls-1" points="16.68 3.73 26.43 3.73 26.43 7.59 21.82 10.56 21.82 10.59 26.56 10.59 26.56 13.37 16.51 13.37 16.51 9.41 21.38 6.54 21.38 6.5 16.68 6.5 16.68 3.73"/><path class="cls-1" d="M32.09,9.67c.07,1.2,1.2,1.48,2.57,1.48,1.28,0,2.42-.22,3.16-.61v2.5c-1.24,.39-2.72,.56-4.35,.56-3.9,0-5.98-1.89-5.98-5.22s2.07-4.87,5.98-4.87,5.05,2.33,5.05,5.59v.57h-6.44Zm2.41-2.04c0-.74-.11-1.91-1.17-1.91s-1.31,1.15-1.26,1.91h2.43Z"/><path class="cls-1" d="M44,3.73v2.18h.04c.56-1.37,1.48-2.41,2.94-2.41,.28,0,.57,.04,.76,.09v3.87c-.22-.09-.63-.15-1.06-.15-1.29,0-2.39,1.13-2.39,2.55v3.5h-4.66V3.73h4.37Z"/><path class="cls-1" d="M48.3,10.29c.9,.54,2.24,.88,3.46,.88,.79,0,1.72-.15,1.72-.64,0-1.2-5.46-.04-5.46-3.79,0-2.8,3.16-3.29,5.48-3.29,1.18,0,2.35,.17,3.51,.41v2.62c-.99-.34-2-.56-3.06-.56-.8,0-1.63,.08-1.63,.67,0,1.01,5.46-.15,5.46,3.51,0,2.78-3.18,3.53-5.4,3.53-1.36,0-2.75-.22-4.07-.56v-2.79Z"/><polygon class="cls-1" points="63.57 7.56 63.6 7.56 66.27 3.73 71.54 3.73 68.29 7.98 71.67 13.37 66.23 13.37 63.6 8.69 63.57 8.69 63.57 13.37 58.9 13.37 58.9 0 63.57 0 63.57 7.56"/><path class="cls-1" d="M72.41,4.06c1.39-.39,2.22-.56,4.03-.56,2.66,0,5.9,.48,5.9,4v5.87h-4.33v-1.39h-.04c-.65,1.09-1.83,1.61-3.15,1.61-1.79,0-3.53-.81-3.53-2.83,0-2.96,2.66-3.55,4.98-3.55,.65,0,1.39,.09,1.82,.13-.02-1.24-1.3-1.39-2.46-1.39s-2.29,.35-3.22,.81v-2.7ZM81.28,0l-3.16,2.99h-3.04L76.89,0h4.39Zm-3.18,9.13h-.46c-.96,0-2.07,.09-2.07,1.09,0,.67,.37,.93,1.09,.93,.96,0,1.44-.89,1.44-1.72v-.3Z"/><path class="cls-5" d="M42.67,69.39c14.61,0,28.23,2.91,39.73,7.41v-6.45c-11.69-4.35-25.25-7.11-39.73-7.11-14.66,0-28.39,2.82-40.18,7.28v6.47c11.58-4.61,25.38-7.59,40.18-7.59Z"/></g></g></svg>