<?xml version="1.0" encoding="UTF-8"?><svg id="Vrstva_2" xmlns="http://www.w3.org/2000/svg" xmlns:xlink="http://www.w3.org/1999/xlink" viewBox="0 0 385.3 95.67"><defs><style>.cls-1{fill:none;}.cls-2{clip-path:url(#clippath);}.cls-3{fill:#e30613;}</style><clipPath id="clippath"><rect class="cls-1" width="385.3" height="95.67"/></clipPath></defs><g id="Vrstva_1-2"><g class="cls-2"><path class="cls-3" d="M63.52,63.27l9.98,32.39h-22.14l-8.88-31.85h-15.71l-5.6,31.85H0L16.81,0h52.04C81.69,0,88.79,8.61,86.47,21.45l-3.69,20.91c-1.91,10.8-9.29,18.73-19.27,20.91m1.64-40.72c.41-2.73-.68-4.1-3.42-4.1h-27.05l-4.78,26.92h27.05c2.73,0,4.37-1.37,4.91-4.1l3.28-18.72Z"/><path class="cls-3" d="M167.5,95.67h-21.45l-2.6-20.23h-32.37l-9.7,20.23h-22.4L127.07,0h25.95l14.49,95.67Zm-47.68-38.68h21.03l-4.37-34.44-16.66,34.44Z"/><path class="cls-3" d="M268.73,0l-13.11,74.21c-2.19,12.85-12.29,21.46-25.14,21.46h-33.47c-12.71,0-19.81-8.61-17.62-21.46L192.52,0h21.17l-12.84,73.11c-.55,2.73,.55,4.1,3.28,4.1h25.67c2.74,0,4.38-1.37,4.92-4.1L247.56,0h21.17Z"/><polygon class="cls-3" points="285.16 0 306.33 0 292.66 77.22 338.15 77.22 335.01 95.67 268.35 95.67 285.16 0"/><path class="cls-3" d="M368.5,95.67h-19.81l3.42-19.82h19.81l-3.41,19.82Zm5.19-30.07h-19.81L365.49,0h19.81l-11.61,65.6Z"/></g></g></svg>